<svg width="31" height="31" viewBox="0 0 31 31" fill="none" xmlns="http://www.w3.org/2000/svg">
<path d="M19.6591 8.46045H7.46575C7.10409 8.46045 6.76825 8.47337 6.45825 8.48628C3.397 8.66712 2.58325 9.79087 2.58325 13.2784V14.0275C2.58325 14.7379 3.1645 15.3192 3.87492 15.3192H23.2499C23.9603 15.3192 24.5416 14.7379 24.5416 14.0275V13.2784C24.5416 9.4292 23.5599 8.46045 19.6591 8.46045Z" fill="#292D32"/>
<path d="M3.87492 17.2567C3.1645 17.2567 2.58325 17.838 2.58325 18.5484V22.3071C2.58325 26.1563 3.56492 27.125 7.46575 27.125H19.6591C23.4953 27.125 24.5028 26.195 24.5416 22.5138V18.5484C24.5416 17.838 23.9603 17.2567 23.2499 17.2567H3.87492ZM8.98992 23.9734H6.78117C6.25159 23.9734 5.81242 23.5342 5.81242 23.0046C5.81242 22.475 6.25159 22.0359 6.78117 22.0359H9.00284C9.53242 22.0359 9.97159 22.475 9.97159 23.0046C9.97159 23.5342 9.53242 23.9734 8.98992 23.9734ZM16.2103 23.9734H11.767C11.2374 23.9734 10.7983 23.5342 10.7983 23.0046C10.7983 22.475 11.2374 22.0359 11.767 22.0359H16.2103C16.7399 22.0359 17.1791 22.475 17.1791 23.0046C17.1791 23.5342 16.7528 23.9734 16.2103 23.9734Z" fill="#292D32"/>
<path d="M28.4166 17.2179V10.4496C28.4166 6.40669 26.1045 4.65002 22.617 4.65002H11.0824C10.1007 4.65002 9.22242 4.79211 8.44742 5.08919C7.84033 5.30877 7.29783 5.63169 6.85867 6.05794C6.62617 6.27752 6.807 6.63919 7.14283 6.63919H21.1832C24.0895 6.63919 26.4403 8.99002 26.4403 11.8963V21.1575C26.4403 21.4804 26.7891 21.6613 27.0216 21.4288C27.9128 20.4859 28.4166 19.1038 28.4166 17.2179Z" fill="#292D32"/>
</svg>
