<svg width="30" height="30" viewBox="0 0 30 30" fill="none" xmlns="http://www.w3.org/2000/svg">
<path d="M27.5 8.125H20" stroke="#292D32" stroke-width="2.5" stroke-miterlimit="10" stroke-linecap="round" stroke-linejoin="round"/>
<path d="M7.5 8.125H2.5" stroke="#292D32" stroke-width="2.5" stroke-miterlimit="10" stroke-linecap="round" stroke-linejoin="round"/>
<path d="M12.5 12.5C14.9162 12.5 16.875 10.5412 16.875 8.125C16.875 5.70875 14.9162 3.75 12.5 3.75C10.0838 3.75 8.125 5.70875 8.125 8.125C8.125 10.5412 10.0838 12.5 12.5 12.5Z" stroke="#292D32" stroke-width="2.5" stroke-miterlimit="10" stroke-linecap="round" stroke-linejoin="round"/>
<path d="M27.5 21.875H22.5" stroke="#292D32" stroke-width="2.5" stroke-miterlimit="10" stroke-linecap="round" stroke-linejoin="round"/>
<path d="M10 21.875H2.5" stroke="#292D32" stroke-width="2.5" stroke-miterlimit="10" stroke-linecap="round" stroke-linejoin="round"/>
<path d="M17.5 26.25C19.9162 26.25 21.875 24.2912 21.875 21.875C21.875 19.4588 19.9162 17.5 17.5 17.5C15.0838 17.5 13.125 19.4588 13.125 21.875C13.125 24.2912 15.0838 26.25 17.5 26.25Z" stroke="#292D32" stroke-width="2.5" stroke-miterlimit="10" stroke-linecap="round" stroke-linejoin="round"/>
</svg>
