<svg width="41" height="42" viewBox="0 0 41 42" fill="none" xmlns="http://www.w3.org/2000/svg">
<rect x="0.5" y="1" width="40" height="40" rx="9.5" stroke="#7561E8"/>
<path d="M26.6346 6H14.4487C9.15554 6 6 9.15554 6 14.4487V26.6201C6 31.9278 9.15554 35.0834 14.4487 35.0834H26.6201C31.9133 35.0834 35.0688 31.9278 35.0688 26.6346V14.4487C35.0834 9.15554 31.9278 6 26.6346 6ZM24.4098 23.0574L22.5484 24.1335L20.6871 25.2096C18.2877 26.591 16.3246 25.4568 16.3246 22.6938V20.5417V18.3895C16.3246 15.612 18.2877 14.4923 20.6871 15.8738L22.5484 16.9499L24.4098 18.026C26.8091 19.4074 26.8091 21.6759 24.4098 23.0574Z" fill="#7561E8"/>
</svg>
