<svg width="33" height="33" viewBox="0 0 33 33" fill="none" xmlns="http://www.w3.org/2000/svg">
<g clip-path="url(#clip0_4348_1193)">
<path fill-rule="evenodd" clip-rule="evenodd" d="M33 16.5C33 7.38702 25.613 0 16.5 0C7.38702 0 0 7.38702 0 16.5C0 25.613 7.38702 33 16.5 33C25.613 33 33 25.613 33 16.5Z" fill="url(#paint0_linear_4348_1193)"/>
<path fill-rule="evenodd" clip-rule="evenodd" d="M6.86677 16.3572L17.9774 11.7791C19.0743 11.3021 22.794 9.77604 22.794 9.77604C22.794 9.77604 24.5107 9.10835 24.3679 10.7301C24.3201 11.3978 23.9387 13.7343 23.5574 16.2615L22.3656 23.7481C22.3656 23.7481 22.2699 24.8449 21.4594 25.0356C20.6489 25.2263 19.3136 24.3679 19.075 24.1773C18.8844 24.0345 15.4981 21.8886 14.2584 20.8396C13.9242 20.5532 13.5429 19.9812 14.3063 19.3136C16.023 17.7397 18.0739 15.7845 19.3136 14.5448C19.8855 13.9728 20.4583 12.6374 18.0739 14.2584L11.3499 18.7887C11.3499 18.7887 10.5873 19.2657 9.15621 18.8365C7.72589 18.4074 6.05705 17.8354 6.05705 17.8354C6.05705 17.8354 4.91233 17.1198 6.86754 16.3572H6.86677Z" fill="white"/>
</g>
<defs>
<linearGradient id="paint0_linear_4348_1193" x1="76.0794" y1="18.1928" x2="46.309" y2="84.3487" gradientUnits="userSpaceOnUse">
<stop stop-color="#37AEE2"/>
<stop offset="1" stop-color="#1E96C8"/>
</linearGradient>
<clipPath id="clip0_4348_1193">
<rect width="33" height="33" fill="white"/>
</clipPath>
</defs>
</svg>
